<svg width="511" height="417" viewBox="0 0 511 417" fill="none" xmlns="http://www.w3.org/2000/svg">
<path d="M299.58 1229.35L105.086 1034.86C147.628 992.314 180.538 942.804 202.893 887.693C224.511 834.407 235.471 778.061 235.477 720.234C235.477 662.4 224.516 606.066 202.893 552.774C180.538 497.664 147.628 448.154 105.086 405.611C62.543 363.068 13.0328 330.159 -42.0777 307.803C-95.3634 286.186 -151.709 275.226 -209.537 275.22C-267.37 275.22 -323.705 286.18 -376.997 307.803C-432.107 330.159 -481.617 363.068 -524.16 405.611L-718.654 211.117C-649.946 142.409 -569.792 89.1862 -480.399 52.9245C-394.112 17.9156 -302.98 0.165143 -209.537 0.170865C-116.094 0.176586 -24.9622 17.9156 61.3245 52.9245C150.717 89.1862 230.872 142.409 299.58 211.117C368.288 279.825 421.51 359.979 457.772 449.372C492.781 535.659 510.531 626.791 510.526 720.234C510.526 813.682 492.781 904.809 457.772 991.095C421.505 1080.48 368.282 1160.65 299.58 1229.35Z" fill="url(#paint0_linear_42_504)"/>
<defs>
<linearGradient id="paint0_linear_42_504" x1="299.58" y1="211.117" x2="-209.537" y2="720.234" gradientUnits="userSpaceOnUse">
<stop stop-color="white"/>
<stop offset="0.190947" stop-color="white" stop-opacity="0.33"/>
<stop offset="0.71875" stop-color="#0077E6" stop-opacity="0.26"/>
<stop offset="1" stop-color="#5FC0DE" stop-opacity="0"/>
</linearGradient>
</defs>
</svg>
