<svg width="689" height="816" viewBox="0 0 689 816" fill="none" xmlns="http://www.w3.org/2000/svg">
<path d="M606.364 -614.428C378.806 -386.87 378.806 -18.2468 606.364 209.311C833.922 436.869 1202.55 436.869 1430.1 209.311" fill="url(#paint0_linear_42_498)"/>
<path d="M1527.35 306.558L1332.86 112.064C1290.31 154.607 1240.8 187.516 1185.69 209.872C1132.41 231.489 1076.06 242.45 1018.23 242.455C960.4 242.455 904.066 231.495 850.774 209.872C795.664 187.516 746.154 154.607 703.611 112.064C661.068 69.5215 628.159 20.0113 605.803 -35.0992C584.186 -88.3849 573.226 -144.731 573.22 -202.559C573.22 -260.392 584.18 -316.727 605.803 -370.018C628.159 -425.128 661.068 -474.639 703.611 -517.181L509.117 -711.675C440.409 -642.968 387.186 -562.813 350.925 -473.42C315.916 -387.133 298.165 -296.002 298.171 -202.559C298.177 -109.116 315.916 -17.9837 350.925 68.303C387.186 157.696 440.409 237.85 509.117 306.558C577.825 375.266 657.979 428.489 747.372 464.751C833.659 499.76 924.791 517.51 1018.23 517.504C1111.68 517.504 1202.81 499.76 1289.1 464.751C1378.48 428.483 1458.65 375.26 1527.35 306.558Z" fill="url(#paint1_linear_42_498)"/>
<defs>
<linearGradient id="paint0_linear_42_498" x1="606.364" y1="209.311" x2="1018.23" y2="-202.559" gradientUnits="userSpaceOnUse">
<stop stop-color="white"/>
<stop offset="0.190947" stop-color="white" stop-opacity="0.33"/>
<stop offset="0.71875" stop-color="#0077E6" stop-opacity="0.26"/>
<stop offset="1" stop-color="#5FC0DE" stop-opacity="0"/>
</linearGradient>
<linearGradient id="paint1_linear_42_498" x1="509.117" y1="306.558" x2="1018.23" y2="-202.559" gradientUnits="userSpaceOnUse">
<stop stop-color="white"/>
<stop offset="0.190947" stop-color="white" stop-opacity="0.33"/>
<stop offset="0.71875" stop-color="#0077E6" stop-opacity="0.26"/>
<stop offset="1" stop-color="#5FC0DE" stop-opacity="0"/>
</linearGradient>
</defs>
</svg>
